<svg xmlns="http://www.w3.org/2000/svg" viewBox="0 0 1051 987">
  <g fill="currentColor">
    <path d="M 211.0,117.0 C 205.8,122.5 200.7,130.8 198.0,138.0 C 195.3,145.2 194.7,152.7 195.0,160.0 C 195.3,167.3 197.0,175.2 200.0,182.0 C 203.0,188.8 207.3,196.3 213.0,201.0 C 218.7,205.7 217.7,207.5 234.0,210.0 C 250.3,212.5 290.8,213.2 311.0,216.0 C 331.2,218.8 342.2,222.7 355.0,227.0 C 367.8,231.3 376.8,236.0 388.0,242.0 C 399.2,248.0 408.8,252.7 422.0,263.0 C 435.2,273.3 456.7,293.2 467.0,304.0 C 477.3,314.8 478.5,318.7 484.0,328.0 C 489.5,337.3 495.0,345.0 500.0,360.0 C 505.0,375.0 510.5,407.7 514.0,418.0 C 517.5,428.3 518.3,422.5 521.0,422.0 C 523.7,421.5 526.8,425.2 530.0,415.0 C 533.2,404.8 538.5,375.2 540.0,361.0 C 541.5,346.8 540.5,341.7 539.0,330.0 C 537.5,318.3 534.0,302.2 531.0,291.0 C 528.0,279.8 525.2,272.3 521.0,263.0 C 516.8,253.7 511.7,244.0 506.0,235.0 C 500.3,226.0 494.0,217.3 487.0,209.0 C 480.0,200.7 472.2,192.3 464.0,185.0 C 455.8,177.7 450.8,173.7 438.0,165.0 C 425.2,156.3 400.3,140.8 387.0,133.0 C 373.7,125.2 367.5,122.2 358.0,118.0 C 348.5,113.8 343.5,111.3 330.0,108.0 C 316.5,104.7 288.8,99.7 277.0,98.0 C 265.2,96.3 267.0,96.8 259.0,98.0 C 251.0,99.2 237.0,101.8 229.0,105.0 C 221.0,108.2 216.2,111.5 211.0,117.0 Z"/>
    <path d="M 443.0,525.0 C 437.3,524.8 428.5,525.2 416.0,530.0 C 403.5,534.8 380.7,546.5 368.0,554.0 C 355.3,561.5 349.3,566.8 340.0,575.0 C 330.7,583.2 320.0,593.8 312.0,603.0 C 304.0,612.2 299.5,616.7 292.0,630.0 C 284.5,643.3 272.8,668.2 267.0,683.0 C 261.2,697.8 259.5,705.8 257.0,719.0 C 254.5,732.2 252.8,749.8 252.0,762.0 C 251.2,774.2 251.2,780.2 252.0,792.0 C 252.8,803.8 254.3,820.0 257.0,833.0 C 259.7,846.0 264.0,859.7 268.0,870.0 C 272.0,880.3 275.8,887.8 281.0,895.0 C 286.2,902.2 292.0,908.2 299.0,913.0 C 306.0,917.8 314.7,922.0 323.0,924.0 C 331.3,926.0 342.5,925.5 349.0,925.0 C 355.5,924.5 357.2,923.3 362.0,921.0 C 366.8,918.7 373.3,915.8 378.0,911.0 C 382.7,906.2 387.5,897.5 390.0,892.0 C 392.5,886.5 392.8,883.0 393.0,878.0 C 393.2,873.0 395.5,873.8 391.0,862.0 C 386.5,850.2 372.0,822.5 366.0,807.0 C 360.0,791.5 357.2,779.0 355.0,769.0 C 352.8,759.0 353.0,761.8 353.0,747.0 C 353.0,732.2 352.7,697.8 355.0,680.0 C 357.3,662.2 363.0,650.8 367.0,640.0 C 371.0,629.2 373.5,624.2 379.0,615.0 C 384.5,605.8 388.7,597.5 400.0,585.0 C 411.3,572.5 438.7,549.0 447.0,540.0 C 455.3,531.0 450.7,533.5 450.0,531.0 C 449.3,528.5 448.7,525.2 443.0,525.0 Z"/>
    <path d="M 1023.0,424.0 C 1020.7,416.8 1015.5,407.2 1011.0,401.0 C 1006.5,394.8 1001.8,390.3 996.0,387.0 C 990.2,383.7 981.8,381.8 976.0,381.0 C 970.2,380.2 966.2,380.8 961.0,382.0 C 955.8,383.2 949.8,385.3 945.0,388.0 C 940.2,390.7 942.0,386.2 932.0,398.0 C 922.0,409.8 897.7,444.7 885.0,459.0 C 872.3,473.3 871.0,474.3 856.0,484.0 C 841.0,493.7 812.5,509.3 795.0,517.0 C 777.5,524.7 766.8,526.7 751.0,530.0 C 735.2,533.3 715.0,535.8 700.0,537.0 C 685.0,538.2 677.5,538.2 661.0,537.0 C 644.5,535.8 611.8,529.7 601.0,530.0 C 590.2,530.3 596.0,536.0 596.0,539.0 C 596.0,542.0 598.3,544.8 601.0,548.0 C 603.7,551.2 606.3,554.0 612.0,558.0 C 617.7,562.0 622.2,566.3 635.0,572.0 C 647.8,577.7 676.3,588.0 689.0,592.0 C 701.7,596.0 702.2,595.0 711.0,596.0 C 719.8,597.0 728.7,598.0 742.0,598.0 C 755.3,598.0 772.7,598.5 791.0,596.0 C 809.3,593.5 830.8,589.5 852.0,583.0 C 873.2,576.5 901.3,564.7 918.0,557.0 C 934.7,549.3 942.2,543.5 952.0,537.0 C 961.8,530.5 968.0,526.0 977.0,518.0 C 986.0,510.0 999.0,497.5 1006.0,489.0 C 1013.0,480.5 1015.8,474.5 1019.0,467.0 C 1022.2,459.5 1024.3,451.2 1025.0,444.0 C 1025.7,436.8 1025.3,431.2 1023.0,424.0 Z"/>
    <path d="M 511.0,579.0 C 508.7,582.0 506.5,587.8 505.0,594.0 C 503.5,600.2 502.5,606.3 502.0,616.0 C 501.5,625.7 500.2,637.3 502.0,652.0 C 503.8,666.7 507.3,687.3 513.0,704.0 C 518.7,720.7 526.3,737.0 536.0,752.0 C 545.7,767.0 557.8,781.3 571.0,794.0 C 584.2,806.7 601.8,819.0 615.0,828.0 C 628.2,837.0 635.7,840.8 650.0,848.0 C 664.3,855.2 686.3,865.5 701.0,871.0 C 715.7,876.5 728.7,878.8 738.0,881.0 C 747.3,883.2 747.7,883.8 757.0,884.0 C 766.3,884.2 784.3,883.8 794.0,882.0 C 803.7,880.2 808.8,877.2 815.0,873.0 C 821.2,868.8 826.8,863.3 831.0,857.0 C 835.2,850.7 838.5,841.8 840.0,835.0 C 841.5,828.2 841.0,821.7 840.0,816.0 C 839.0,810.3 837.5,806.3 834.0,801.0 C 830.5,795.7 823.5,788.2 819.0,784.0 C 814.5,779.8 811.0,777.8 807.0,776.0 C 803.0,774.2 804.3,773.7 795.0,773.0 C 785.7,772.3 768.3,774.0 751.0,772.0 C 733.7,770.0 711.7,768.2 691.0,761.0 C 670.3,753.8 642.5,738.0 627.0,729.0 C 611.5,720.0 608.2,716.2 598.0,707.0 C 587.8,697.8 575.0,685.2 566.0,674.0 C 557.0,662.8 551.2,655.7 544.0,640.0 C 536.8,624.3 527.2,590.7 523.0,580.0 C 518.8,569.3 521.0,576.2 519.0,576.0 C 517.0,575.8 513.3,576.0 511.0,579.0 Z"/>
    <path d="M 469.0,562.0 C 464.0,564.7 453.5,574.3 448.0,580.0 C 442.5,585.7 441.8,586.5 436.0,596.0 C 430.2,605.5 418.0,626.7 413.0,637.0 C 408.0,647.3 408.3,648.3 406.0,658.0 C 403.7,667.7 400.2,682.0 399.0,695.0 C 397.8,708.0 397.8,722.2 399.0,736.0 C 400.2,749.8 403.2,765.7 406.0,778.0 C 408.8,790.3 410.8,797.2 416.0,810.0 C 421.2,822.8 429.5,841.0 437.0,855.0 C 444.5,869.0 454.0,884.0 461.0,894.0 C 468.0,904.0 472.0,908.0 479.0,915.0 C 486.0,922.0 494.8,930.0 503.0,936.0 C 511.2,942.0 518.3,946.7 528.0,951.0 C 537.7,955.3 551.7,960.7 561.0,962.0 C 570.3,963.3 577.0,961.0 584.0,959.0 C 591.0,957.0 597.5,953.8 603.0,950.0 C 608.5,946.2 613.3,941.5 617.0,936.0 C 620.7,930.5 623.7,923.2 625.0,917.0 C 626.3,910.8 626.3,905.0 625.0,899.0 C 623.7,893.0 621.0,886.7 617.0,881.0 C 613.0,875.3 612.7,873.5 601.0,865.0 C 589.3,856.5 560.2,839.7 547.0,830.0 C 533.8,820.3 529.3,815.2 522.0,807.0 C 514.7,798.8 508.5,789.8 503.0,781.0 C 497.5,772.2 493.0,762.7 489.0,754.0 C 485.0,745.3 482.5,741.0 479.0,729.0 C 475.5,717.0 469.8,699.3 468.0,682.0 C 466.2,664.7 466.2,642.7 468.0,625.0 C 469.8,607.3 477.3,586.2 479.0,576.0 C 480.7,565.8 479.7,566.3 478.0,564.0 C 476.3,561.7 474.0,559.3 469.0,562.0 Z"/>
    <path d="M 437.0,487.0 C 434.7,485.5 435.0,484.0 423.0,482.0 C 411.0,480.0 384.7,475.0 365.0,475.0 C 345.3,475.0 322.8,478.2 305.0,482.0 C 287.2,485.8 269.2,493.5 258.0,498.0 C 246.8,502.5 247.3,502.7 238.0,509.0 C 228.7,515.3 213.2,526.3 202.0,536.0 C 190.8,545.7 179.7,557.2 171.0,567.0 C 162.3,576.8 157.5,584.0 150.0,595.0 C 142.5,606.0 132.5,621.5 126.0,633.0 C 119.5,644.5 115.2,652.8 111.0,664.0 C 106.8,675.2 102.7,687.5 101.0,700.0 C 99.3,712.5 99.0,728.0 101.0,739.0 C 103.0,750.0 108.5,759.0 113.0,766.0 C 117.5,773.0 122.0,777.0 128.0,781.0 C 134.0,785.0 141.7,788.5 149.0,790.0 C 156.3,791.5 165.0,791.3 172.0,790.0 C 179.0,788.7 184.8,787.0 191.0,782.0 C 197.2,777.0 204.8,768.2 209.0,760.0 C 213.2,751.8 213.8,747.0 216.0,733.0 C 218.2,719.0 219.2,691.2 222.0,676.0 C 224.8,660.8 229.2,651.7 233.0,642.0 C 236.8,632.3 239.3,627.3 245.0,618.0 C 250.7,608.7 257.3,597.3 267.0,586.0 C 276.7,574.7 291.8,559.5 303.0,550.0 C 314.2,540.5 325.0,534.3 334.0,529.0 C 343.0,523.7 341.8,522.8 357.0,518.0 C 372.2,513.2 411.7,504.5 425.0,500.0 C 438.3,495.5 435.0,493.2 437.0,491.0 C 439.0,488.8 439.3,488.5 437.0,487.0 Z"/>
    <path d="M 451.0,445.0 C 449.2,441.5 445.5,435.5 440.0,431.0 C 434.5,426.5 429.3,423.3 418.0,418.0 C 406.7,412.7 387.3,404.5 372.0,399.0 C 356.7,393.5 340.0,388.3 326.0,385.0 C 312.0,381.7 299.3,380.0 288.0,379.0 C 276.7,378.0 270.7,378.0 258.0,379.0 C 245.3,380.0 232.0,380.2 212.0,385.0 C 192.0,389.8 157.8,400.3 138.0,408.0 C 118.2,415.7 105.2,423.7 93.0,431.0 C 80.8,438.3 73.8,444.3 65.0,452.0 C 56.2,459.7 47.0,468.3 40.0,477.0 C 33.0,485.7 27.0,495.8 23.0,504.0 C 19.0,512.2 17.2,519.8 16.0,526.0 C 14.8,532.2 14.8,535.5 16.0,541.0 C 17.2,546.5 19.2,553.2 23.0,559.0 C 26.8,564.8 33.5,571.7 39.0,576.0 C 44.5,580.3 49.3,583.2 56.0,585.0 C 62.7,586.8 72.2,587.7 79.0,587.0 C 85.8,586.3 91.3,584.0 97.0,581.0 C 102.7,578.0 105.3,577.5 113.0,569.0 C 120.7,560.5 132.3,542.3 143.0,530.0 C 153.7,517.7 166.0,504.3 177.0,495.0 C 188.0,485.7 199.5,479.5 209.0,474.0 C 218.5,468.5 224.3,465.8 234.0,462.0 C 243.7,458.2 251.3,454.5 267.0,451.0 C 282.7,447.5 306.8,442.2 328.0,441.0 C 349.2,439.8 374.0,441.7 394.0,444.0 C 414.0,446.3 438.5,453.7 448.0,455.0 C 457.5,456.3 450.5,453.7 451.0,452.0 C 451.5,450.3 452.8,448.5 451.0,445.0 Z"/>
    <path d="M 556.0,572.0 C 555.2,574.8 555.3,579.5 556.0,583.0 C 556.7,586.5 556.0,585.8 560.0,593.0 C 564.0,600.2 573.0,616.3 580.0,626.0 C 587.0,635.7 594.3,643.3 602.0,651.0 C 609.7,658.7 616.5,664.8 626.0,672.0 C 635.5,679.2 649.5,688.3 659.0,694.0 C 668.5,699.7 668.3,700.3 683.0,706.0 C 697.7,711.7 725.0,722.7 747.0,728.0 C 769.0,733.3 795.2,736.8 815.0,738.0 C 834.8,739.2 851.3,736.7 866.0,735.0 C 880.7,733.3 892.0,731.0 903.0,728.0 C 914.0,725.0 923.5,721.0 932.0,717.0 C 940.5,713.0 948.5,708.0 954.0,704.0 C 959.5,700.0 961.3,698.5 965.0,693.0 C 968.7,687.5 974.2,678.3 976.0,671.0 C 977.8,663.7 977.2,655.3 976.0,649.0 C 974.8,642.7 972.7,638.3 969.0,633.0 C 965.3,627.7 959.5,621.2 954.0,617.0 C 948.5,612.8 944.7,609.3 936.0,608.0 C 927.3,606.7 917.5,605.5 902.0,609.0 C 886.5,612.5 860.7,623.8 843.0,629.0 C 825.3,634.2 815.3,638.0 796.0,640.0 C 776.7,642.0 747.3,642.7 727.0,641.0 C 706.7,639.3 687.7,633.7 674.0,630.0 C 660.3,626.3 656.8,625.0 645.0,619.0 C 633.2,613.0 615.7,602.8 603.0,594.0 C 590.3,585.2 576.0,570.7 569.0,566.0 C 562.0,561.3 563.2,565.0 561.0,566.0 C 558.8,567.0 556.8,569.2 556.0,572.0 Z"/>
    <path d="M 710.0,57.0 C 703.8,55.2 700.3,53.8 693.0,55.0 C 685.7,56.2 672.8,60.7 666.0,64.0 C 659.2,67.3 655.7,70.3 652.0,75.0 C 648.3,79.7 645.2,84.0 644.0,92.0 C 642.8,100.0 641.3,110.2 645.0,123.0 C 648.7,135.8 660.3,153.5 666.0,169.0 C 671.7,184.5 676.3,203.7 679.0,216.0 C 681.7,228.3 682.0,228.2 682.0,243.0 C 682.0,257.8 681.7,287.0 679.0,305.0 C 676.3,323.0 671.7,336.5 666.0,351.0 C 660.3,365.5 652.0,381.0 645.0,392.0 C 638.0,403.0 632.0,408.7 624.0,417.0 C 616.0,425.3 601.7,436.7 597.0,442.0 C 592.3,447.3 595.0,446.8 596.0,449.0 C 597.0,451.2 596.8,455.2 603.0,455.0 C 609.2,454.8 624.2,451.0 633.0,448.0 C 641.8,445.0 645.5,443.7 656.0,437.0 C 666.5,430.3 683.8,418.8 696.0,408.0 C 708.2,397.2 719.5,384.5 729.0,372.0 C 738.5,359.5 745.7,349.2 753.0,333.0 C 760.3,316.8 768.3,294.3 773.0,275.0 C 777.7,255.7 779.8,233.3 781.0,217.0 C 782.2,200.7 781.2,189.3 780.0,177.0 C 778.8,164.7 776.7,153.7 774.0,143.0 C 771.3,132.3 769.0,123.5 764.0,113.0 C 759.0,102.5 749.7,87.8 744.0,80.0 C 738.3,72.2 735.7,69.8 730.0,66.0 C 724.3,62.2 716.2,58.8 710.0,57.0 Z"/>
    <path d="M 458.0,21.0 C 451.3,22.3 440.8,25.5 434.0,29.0 C 427.2,32.5 420.7,38.7 417.0,42.0 C 413.3,45.3 413.7,45.0 412.0,49.0 C 410.3,53.0 406.5,59.5 407.0,66.0 C 407.5,72.5 411.0,81.5 415.0,88.0 C 419.0,94.5 420.2,96.3 431.0,105.0 C 441.8,113.7 465.3,128.0 480.0,140.0 C 494.7,152.0 508.5,165.2 519.0,177.0 C 529.5,188.8 537.3,201.8 543.0,211.0 C 548.7,220.2 548.8,221.5 553.0,232.0 C 557.2,242.5 564.2,258.3 568.0,274.0 C 571.8,289.7 575.3,310.2 576.0,326.0 C 576.7,341.8 574.5,355.5 572.0,369.0 C 569.5,382.5 562.8,399.2 561.0,407.0 C 559.2,414.8 559.7,413.3 561.0,416.0 C 562.3,418.7 564.8,423.7 569.0,423.0 C 573.2,422.3 579.3,419.0 586.0,412.0 C 592.7,405.0 603.0,390.0 609.0,381.0 C 615.0,372.0 617.8,367.5 622.0,358.0 C 626.2,348.5 631.2,334.8 634.0,324.0 C 636.8,313.2 638.2,304.3 639.0,293.0 C 639.8,281.7 640.8,272.2 639.0,256.0 C 637.2,239.8 633.0,214.7 628.0,196.0 C 623.0,177.3 616.0,159.3 609.0,144.0 C 602.0,128.7 593.5,115.5 586.0,104.0 C 578.5,92.5 571.7,83.7 564.0,75.0 C 556.3,66.3 549.5,59.3 540.0,52.0 C 530.5,44.7 518.0,36.2 507.0,31.0 C 496.0,25.8 482.2,22.7 474.0,21.0 C 465.8,19.3 464.7,19.7 458.0,21.0 Z"/>
    <path d="M 920.0,211.0 C 916.0,204.8 912.3,201.2 906.0,197.0 C 899.7,192.8 890.2,187.8 882.0,186.0 C 873.8,184.2 864.7,184.3 857.0,186.0 C 849.3,187.7 841.3,192.5 836.0,196.0 C 830.7,199.5 828.2,201.8 825.0,207.0 C 821.8,212.2 818.3,217.7 817.0,227.0 C 815.7,236.3 818.2,248.7 817.0,263.0 C 815.8,277.3 812.7,300.0 810.0,313.0 C 807.3,326.0 806.2,329.7 801.0,341.0 C 795.8,352.3 785.7,370.7 779.0,381.0 C 772.3,391.3 770.8,393.0 761.0,403.0 C 751.2,413.0 732.3,431.3 720.0,441.0 C 707.7,450.7 697.7,455.7 687.0,461.0 C 676.3,466.3 668.0,469.2 656.0,473.0 C 644.0,476.8 622.5,481.3 615.0,484.0 C 607.5,486.7 611.3,486.7 611.0,489.0 C 610.7,491.3 608.7,495.5 613.0,498.0 C 617.3,500.5 627.3,503.0 637.0,504.0 C 646.7,505.0 655.7,505.7 671.0,504.0 C 686.3,502.3 709.8,499.7 729.0,494.0 C 748.2,488.3 771.0,477.5 786.0,470.0 C 801.0,462.5 807.2,457.8 819.0,449.0 C 830.8,440.2 845.5,428.3 857.0,417.0 C 868.5,405.7 879.2,393.7 888.0,381.0 C 896.8,368.3 904.3,352.5 910.0,341.0 C 915.7,329.5 918.7,322.2 922.0,312.0 C 925.3,301.8 928.2,290.3 930.0,280.0 C 931.8,269.7 933.0,257.7 933.0,250.0 C 933.0,242.3 932.2,240.5 930.0,234.0 C 927.8,227.5 924.0,217.2 920.0,211.0 Z"/>
    <path d="M 68.0,300.0 C 65.7,308.3 66.2,322.0 67.0,329.0 C 67.8,336.0 69.5,337.0 73.0,342.0 C 76.5,347.0 81.8,354.5 88.0,359.0 C 94.2,363.5 102.2,367.7 110.0,369.0 C 117.8,370.3 124.2,370.3 135.0,367.0 C 145.8,363.7 161.7,353.8 175.0,349.0 C 188.3,344.2 201.0,340.5 215.0,338.0 C 229.0,335.5 241.8,334.0 259.0,334.0 C 276.2,334.0 300.5,335.2 318.0,338.0 C 335.5,340.8 348.8,345.2 364.0,351.0 C 379.2,356.8 398.3,367.2 409.0,373.0 C 419.7,378.8 419.0,378.2 428.0,386.0 C 437.0,393.8 455.7,413.5 463.0,420.0 C 470.3,426.5 469.5,424.3 472.0,425.0 C 474.5,425.7 476.3,425.0 478.0,424.0 C 479.7,423.0 481.3,421.3 482.0,419.0 C 482.7,416.7 483.0,414.5 482.0,410.0 C 481.0,405.5 479.0,398.8 476.0,392.0 C 473.0,385.2 471.8,379.8 464.0,369.0 C 456.2,358.2 438.8,337.3 429.0,327.0 C 419.2,316.7 414.0,313.5 405.0,307.0 C 396.0,300.5 390.2,295.5 375.0,288.0 C 359.8,280.5 331.0,268.2 314.0,262.0 C 297.0,255.8 286.5,253.7 273.0,251.0 C 259.5,248.3 248.0,247.2 233.0,246.0 C 218.0,244.8 197.3,243.8 183.0,244.0 C 168.7,244.2 157.2,245.5 147.0,247.0 C 136.8,248.5 131.2,249.3 122.0,253.0 C 112.8,256.7 98.8,264.7 92.0,269.0 C 85.2,273.3 85.0,273.8 81.0,279.0 C 77.0,284.2 70.3,291.7 68.0,300.0 Z"/>
  </g>
</svg>